<?xml version="1.0" encoding="UTF-8"?>
<svg xmlns="http://www.w3.org/2000/svg" xmlns:xlink="http://www.w3.org/1999/xlink" width="360.58pt" height="365pt" viewBox="0 0 360.58 365" version="1.1">
<defs>
<clipPath id="clip1">
  <path d="M 333 96 L 360.578125 96 L 360.578125 142 L 333 142 Z M 333 96 "/>
</clipPath>
</defs>
<g id="surface1">
<path style=" stroke:none;fill-rule:nonzero;fill:rgb(98.399353%,67.498779%,17.999268%);fill-opacity:1;" d="M 67.65625 0 C 67.65625 113.355469 88.476563 185.488281 180.296875 253.9375 C 272.074219 185.488281 292.9375 113.355469 292.9375 0 C 255.847656 19.488281 232.03125 28.910156 180.296875 28.910156 C 128.539063 28.910156 104.683594 19.488281 67.65625 0 "/>
<path style=" stroke:none;fill-rule:nonzero;fill:rgb(19.999695%,27.799988%,12.199402%);fill-opacity:1;" d="M 12.546875 69.984375 C 23.628906 47.371094 11.035156 26.71875 6.84375 19.152344 C 1.28125 39.363281 1.660156 62.25 12.546875 69.984375 "/>
<path style=" stroke:none;fill-rule:nonzero;fill:rgb(19.999695%,27.799988%,12.199402%);fill-opacity:1;" d="M 27.53125 114.300781 C 41.355469 101.488281 31.21875 70.363281 28.351563 63.15625 C 23.839844 72.34375 16.507813 94.429688 27.53125 114.300781 "/>
<path style=" stroke:none;fill-rule:nonzero;fill:rgb(19.999695%,27.799988%,12.199402%);fill-opacity:1;" d="M 27.042969 141.023438 C 8.980469 133.648438 2.667969 112.34375 0 96.558594 C 4.945313 99.023438 28.667969 116.179688 27.042969 141.023438 "/>
<path style=" stroke:none;fill-rule:nonzero;fill:rgb(19.999695%,27.799988%,12.199402%);fill-opacity:1;" d="M 51.152344 118.222656 C 55.113281 123.597656 63.902344 153.414063 51.152344 171.011719 C 38.71875 152.550781 45.925781 124.015625 51.152344 118.222656 "/>
<path style=" stroke:none;fill-rule:nonzero;fill:rgb(19.999695%,27.799988%,12.199402%);fill-opacity:1;" d="M 44.15625 193.984375 C 47.402344 172.109375 15.894531 153.585938 14.339844 152.109375 C 16.148438 164.140625 27.699219 189.535156 44.15625 193.984375 "/>
<path style=" stroke:none;fill-rule:nonzero;fill:rgb(19.999695%,27.799988%,12.199402%);fill-opacity:1;" d="M 70.371094 221.484375 C 61.648438 214.953125 61.207031 188.019531 68.097656 171.011719 C 78.277344 185.933594 80.257813 216.636719 70.371094 221.484375 "/>
<path style=" stroke:none;fill-rule:nonzero;fill:rgb(19.999695%,27.799988%,12.199402%);fill-opacity:1;" d="M 58.320313 220.851563 C 52.480469 225.277344 43.480469 209.894531 49.679688 205.890625 C 55.601563 202.203125 63.503906 216.847656 58.320313 220.851563 "/>
<path style=" stroke:none;fill-rule:nonzero;fill:rgb(19.999695%,27.799988%,12.199402%);fill-opacity:1;" d="M 83.101563 236.867188 C 76.359375 239.820313 71.40625 222.75 78.382813 220.222656 C 85 218.324219 89.109375 234.339844 83.101563 236.867188 "/>
<path style=" stroke:none;fill-rule:nonzero;fill:rgb(19.999695%,27.799988%,12.199402%);fill-opacity:1;" d="M 55.453125 190.96875 C 48.246094 192.277344 47.191406 174.46875 54.523438 173.730469 C 61.480469 173.121094 61.878906 189.769531 55.453125 190.96875 "/>
<path style=" stroke:none;fill-rule:nonzero;fill:rgb(19.999695%,27.799988%,12.199402%);fill-opacity:1;" d="M 39.015625 160.265625 C 33.136719 164.648438 24.285156 149.160156 30.523438 145.238281 C 36.464844 141.59375 44.242188 156.324219 39.015625 160.265625 "/>
<path style=" stroke:none;fill-rule:nonzero;fill:rgb(19.999695%,27.799988%,12.199402%);fill-opacity:1;" d="M 39.097656 131.097656 C 31.996094 132.890625 29.742188 115.207031 37.011719 113.964844 C 43.902344 112.867188 45.441406 129.453125 39.097656 131.097656 "/>
<path style=" stroke:none;fill-rule:nonzero;fill:rgb(19.999695%,27.799988%,12.199402%);fill-opacity:1;" d="M 13.546875 95.460938 C 7.460938 99.550781 -0.605469 83.640625 5.824219 80.035156 C 11.945313 76.683594 18.972656 91.796875 13.546875 95.460938 "/>
<path style=" stroke:none;fill-rule:nonzero;fill:rgb(19.999695%,27.799988%,12.199402%);fill-opacity:1;" d="M 123.101563 285.550781 C 116.820313 289.34375 109.65625 273.117188 116.230469 269.746094 C 122.550781 267.003906 128.726563 282.179688 123.101563 285.550781 "/>
<path style=" stroke:none;fill-rule:nonzero;fill:rgb(19.999695%,27.799988%,12.199402%);fill-opacity:1;" d="M 97.8125 278.808594 C 92.839844 284.074219 81.375 270.589844 86.707031 265.53125 C 91.972656 261.105469 102.257813 273.960938 97.8125 278.808594 "/>
<path style=" stroke:none;fill-rule:nonzero;fill:rgb(19.999695%,27.799988%,12.199402%);fill-opacity:1;" d="M 106.851563 268.269531 C 96.800781 264.054688 89.738281 238.132813 92.332031 219.800781 C 105.839844 232.023438 115.261719 261.105469 106.851563 268.269531 "/>
<path style=" stroke:none;fill-rule:nonzero;fill:rgb(19.999695%,27.799988%,12.199402%);fill-opacity:1;" d="M 88.203125 260.683594 C 77.453125 262.789063 57.644531 244.667969 50.015625 227.597656 C 67.992188 230.757813 91.488281 250.355469 88.203125 260.683594 "/>
<path style=" stroke:none;fill-rule:nonzero;fill:rgb(19.999695%,27.799988%,12.199402%);fill-opacity:1;" d="M 139.074219 308.101563 C 129.402344 313.15625 105.1875 301.566406 92.964844 287.445313 C 111.089844 285.128906 139.242188 297.140625 139.074219 308.101563 "/>
<path style=" stroke:none;fill-rule:nonzero;fill:rgb(19.999695%,27.799988%,12.199402%);fill-opacity:1;" d="M 151.214844 309.152344 C 140.59375 306.625 130.054688 281.757813 130.140625 263.210938 C 145.335938 273.328125 158.566406 300.933594 151.214844 309.152344 "/>
<path style=" stroke:none;fill-rule:nonzero;fill:rgb(19.999695%,27.799988%,12.199402%);fill-opacity:1;" d="M 161.390625 365 C 159.367188 362.472656 158 359.730469 153.089844 357.203125 C 176.566406 334.652344 194.480469 326.011719 210.324219 317.371094 C 191.210938 331.492188 169.949219 345.824219 161.390625 365 "/>
<path style=" stroke:none;fill-rule:nonzero;fill:rgb(19.999695%,27.799988%,12.199402%);fill-opacity:1;" d="M 348.152344 69.984375 C 336.980469 47.371094 349.625 26.71875 353.839844 19.152344 C 359.320313 39.363281 358.898438 62.25 348.152344 69.984375 "/>
<path style=" stroke:none;fill-rule:nonzero;fill:rgb(19.999695%,27.799988%,12.199402%);fill-opacity:1;" d="M 332.976563 114.300781 C 319.28125 101.488281 329.394531 70.363281 332.347656 63.15625 C 336.769531 72.34375 344.148438 94.429688 332.976563 114.300781 "/>
<g clip-path="url(#clip1)" clip-rule="nonzero">
<path style=" stroke:none;fill-rule:nonzero;fill:rgb(19.999695%,27.799988%,12.199402%);fill-opacity:1;" d="M 333.609375 141.023438 C 351.523438 133.648438 357.84375 112.34375 360.585938 96.558594 C 355.738281 99.023438 331.925781 116.179688 333.609375 141.023438 "/>
</g>
<path style=" stroke:none;fill-rule:nonzero;fill:rgb(19.999695%,27.799988%,12.199402%);fill-opacity:1;" d="M 309.375 118.222656 C 305.582031 123.597656 296.730469 153.414063 309.375 171.011719 C 321.808594 152.550781 314.644531 124.015625 309.375 118.222656 "/>
<path style=" stroke:none;fill-rule:nonzero;fill:rgb(19.999695%,27.799988%,12.199402%);fill-opacity:1;" d="M 316.539063 193.984375 C 313.167969 172.109375 344.777344 153.585938 346.253906 152.109375 C 344.359375 164.140625 332.976563 189.535156 316.539063 193.984375 "/>
<path style=" stroke:none;fill-rule:nonzero;fill:rgb(19.999695%,27.799988%,12.199402%);fill-opacity:1;" d="M 290.195313 221.484375 C 299.046875 214.953125 299.46875 188.019531 292.515625 171.011719 C 282.398438 185.933594 280.292969 216.636719 290.195313 221.484375 "/>
<path style=" stroke:none;fill-rule:nonzero;fill:rgb(19.999695%,27.799988%,12.199402%);fill-opacity:1;" d="M 302.210938 220.851563 C 308.109375 225.277344 317.171875 209.894531 310.851563 205.890625 C 304.949219 202.203125 297.152344 216.847656 302.210938 220.851563 "/>
<path style=" stroke:none;fill-rule:nonzero;fill:rgb(19.999695%,27.799988%,12.199402%);fill-opacity:1;" d="M 277.554688 236.867188 C 284.296875 239.820313 289.144531 222.75 282.1875 220.222656 C 275.65625 218.324219 271.441406 234.339844 277.554688 236.867188 "/>
<path style=" stroke:none;fill-rule:nonzero;fill:rgb(19.999695%,27.799988%,12.199402%);fill-opacity:1;" d="M 305.160156 190.96875 C 312.324219 192.277344 313.378906 174.46875 306.003906 173.730469 C 299.046875 173.121094 298.628906 189.769531 305.160156 190.96875 "/>
<path style=" stroke:none;fill-rule:nonzero;fill:rgb(19.999695%,27.799988%,12.199402%);fill-opacity:1;" d="M 321.597656 160.265625 C 327.5 164.648438 336.351563 149.160156 330.027344 145.238281 C 324.128906 141.59375 316.328125 156.324219 321.597656 160.265625 "/>
<path style=" stroke:none;fill-rule:nonzero;fill:rgb(19.999695%,27.799988%,12.199402%);fill-opacity:1;" d="M 321.597656 131.097656 C 328.550781 132.890625 330.871094 115.207031 323.492188 113.964844 C 316.75 112.867188 315.066406 129.453125 321.597656 131.097656 "/>
<path style=" stroke:none;fill-rule:nonzero;fill:rgb(19.999695%,27.799988%,12.199402%);fill-opacity:1;" d="M 347.097656 95.460938 C 353.210938 99.550781 361.21875 83.640625 354.683594 80.035156 C 348.574219 76.683594 341.617188 91.796875 347.097656 95.460938 "/>
<path style=" stroke:none;fill-rule:nonzero;fill:rgb(19.999695%,27.799988%,12.199402%);fill-opacity:1;" d="M 237.511719 285.550781 C 243.835938 289.34375 251 273.117188 244.464844 269.746094 C 238.144531 267.003906 231.820313 282.179688 237.511719 285.550781 "/>
<path style=" stroke:none;fill-rule:nonzero;fill:rgb(19.999695%,27.799988%,12.199402%);fill-opacity:1;" d="M 262.800781 278.808594 C 267.859375 284.074219 279.238281 270.589844 273.96875 265.53125 C 268.703125 261.105469 258.375 273.960938 262.800781 278.808594 "/>
<path style=" stroke:none;fill-rule:nonzero;fill:rgb(19.999695%,27.799988%,12.199402%);fill-opacity:1;" d="M 253.738281 268.269531 C 263.855469 264.054688 270.808594 238.132813 268.28125 219.800781 C 254.792969 232.023438 245.308594 261.105469 253.738281 268.269531 "/>
<path style=" stroke:none;fill-rule:nonzero;fill:rgb(19.999695%,27.799988%,12.199402%);fill-opacity:1;" d="M 272.496094 260.683594 C 283.242188 262.789063 303.050781 244.667969 310.640625 227.597656 C 292.515625 230.757813 269.121094 250.355469 272.496094 260.683594 "/>
<path style=" stroke:none;fill-rule:nonzero;fill:rgb(19.999695%,27.799988%,12.199402%);fill-opacity:1;" d="M 221.496094 308.101563 C 231.191406 313.15625 255.425781 301.566406 267.648438 287.445313 C 249.523438 285.128906 221.285156 297.140625 221.496094 308.101563 "/>
<path style=" stroke:none;fill-rule:nonzero;fill:rgb(19.999695%,27.799988%,12.199402%);fill-opacity:1;" d="M 209.484375 309.152344 C 220.019531 306.625 230.558594 281.757813 230.558594 263.210938 C 215.171875 273.328125 202.023438 300.933594 209.484375 309.152344 "/>
<path style=" stroke:none;fill-rule:nonzero;fill:rgb(19.999695%,27.799988%,12.199402%);fill-opacity:1;" d="M 199.21875 365 C 201.242188 362.472656 202.339844 359.730469 206.320313 357.203125 C 184.046875 334.652344 166.132813 326.011719 150.285156 317.371094 C 169.398438 331.492188 190.664063 345.824219 199.21875 365 "/>
<path style=" stroke:none;fill-rule:nonzero;fill:rgb(100%,100%,100%);fill-opacity:1;" d="M 83.585938 25.304688 C 110.308594 55.863281 129.402344 65.808594 140.277344 74.261719 C 160.296875 89.8125 165.25 100.308594 169.507813 108.675781 C 174.140625 117.757813 176.460938 125.828125 180.421875 130.253906 C 169.273438 135.207031 158.230469 145.34375 151.066406 154.597656 C 144.386719 153.078125 138.757813 149.136719 136.101563 143.40625 C 139.03125 145.871094 148.261719 146.96875 149.023438 146.101563 C 149.589844 144.246094 133.996094 140.519531 127.441406 131.414063 C 131.992188 133.015625 139.265625 136.789063 143.140625 135.609375 C 143.730469 135.3125 134.882813 131.792969 133.003906 130.699219 C 126.175781 126.734375 118.929688 123.027344 113.636719 112.867188 C 120.613281 117.125 137.199219 126.421875 138.507813 124.25 C 139.199219 123.699219 137.179688 123.40625 132.796875 121.046875 C 125.734375 117.253906 113.871094 109.496094 107.421875 97.019531 C 116.144531 103.40625 131.613281 113.226563 133.890625 111.519531 C 135.640625 110.402344 127.464844 108.441406 117.621094 100.476563 C 110.308594 94.578125 102.277344 87.789063 99.898438 76.644531 C 109.949219 86.039063 128.304688 98.117188 130.074219 96.746094 C 130.644531 96.136719 129.484375 95.421875 126.746094 93.523438 C 119.097656 88.296875 99.582031 74.410156 96.0625 59.445313 C 106.28125 68.214844 124.070313 84.25 129.570313 83.554688 C 133.511719 79.382813 90.816406 62.585938 83.585938 25.304688 "/>
<path style=" stroke:none;fill-rule:nonzero;fill:rgb(100%,100%,100%);fill-opacity:1;" d="M 188.175781 127.390625 C 208.640625 121.363281 219.386719 126.652344 220.441406 136.828125 C 231.398438 131.773438 240.039063 126.628906 244.046875 114.742188 C 239.828125 117.464844 234.773438 122.140625 232.242188 121.277344 C 231.191406 120.664063 240.882813 114.511719 248.050781 107.199219 C 253.527344 101.929688 256.480469 96.472656 258.164063 90.109375 C 252.476563 94.722656 241.09375 106.441406 240.039063 104.503906 C 238.777344 102.035156 262.800781 87.15625 264.699219 66.589844 C 258.164063 73.1875 248.890625 85.199219 246.574219 83.007813 C 245.519531 81.722656 248.679688 79.464844 253.316406 73.671875 C 261.113281 63.597656 273.550781 45.9375 274.601563 33.335938 C 254.371094 58.011719 236.035156 71.394531 221.917969 82.332031 C 216.4375 86.589844 211.800781 90.804688 207.796875 94.554688 C 197.238281 104.3125 193.78125 117.527344 188.175781 127.390625 "/>
<path style=" stroke:none;fill-rule:nonzero;fill:rgb(100%,100%,100%);fill-opacity:1;" d="M 208.429688 137.652344 C 209.90625 137.652344 211.167969 138.832031 211.167969 140.160156 C 211.167969 141.53125 209.90625 142.519531 208.429688 142.519531 C 207.375 142.519531 206.109375 141.53125 206.109375 140.160156 C 206.109375 138.832031 207.375 137.652344 208.429688 137.652344 Z M 139.117188 183.742188 C 141.011719 185.28125 143.628906 186.375 146.15625 187.175781 C 146.746094 184.308594 147.460938 180.558594 149.316406 176.300781 C 150.644531 173.246094 152.539063 169.917969 155.363281 166.355469 C 152.792969 171.769531 148.875 182.835938 148.980469 188.019531 L 156.503906 189.222656 C 158.082031 178.746094 159.707031 174.152344 164.277344 168.125 C 163.710938 168.882813 160.042969 181.800781 160.253906 189.914063 C 162.699219 190.128906 165.375 190.484375 167.96875 190.589844 C 167.96875 184.226563 169.609375 172.59375 171.761719 168.820313 C 171.171875 176.386719 171.464844 183.574219 171.421875 190.90625 L 179.664063 190.695313 C 178.820313 183.53125 178.1875 176.34375 178.566406 168.945313 C 181.519531 178.640625 182.636719 184.183594 183.5 190.695313 C 185.773438 190.484375 188.9375 190.148438 191.085938 189.957031 C 190.8125 185.132813 186.996094 172.277344 185.4375 168.378906 C 190.328125 175.4375 192.730469 184.078125 193.910156 189.410156 C 196.25 189.113281 199.304688 188.628906 201.453125 188.230469 C 200.988281 184.308594 195.742188 172.003906 192.6875 166.925781 C 196.375 169.410156 202.296875 178.871094 203.625 187.492188 C 206.742188 186.816406 208.429688 185.871094 210.746094 184.984375 C 209.0625 177.355469 207.375 169.535156 197.40625 159.378906 C 198.839844 157.503906 201.242188 154.257813 201.453125 151.539063 C 204.171875 151.539063 208.640625 152.109375 209.695313 150.339844 L 217.914063 155.523438 C 216.859375 151.878906 215.382813 146.882813 215.59375 146.144531 C 215.59375 145.511719 216.648438 143.933594 217.070313 143.132813 C 220.019531 134.300781 212.855469 128.992188 208.21875 127.957031 C 206.109375 127.492188 199.09375 126.082031 186.132813 130.632813 C 169.210938 136.597656 156.417969 150.316406 147.652344 165.847656 C 144.53125 171.371094 140.761719 178.597656 139.117188 183.742188 "/>
<path style=" stroke:none;fill-rule:nonzero;fill:rgb(100%,100%,100%);fill-opacity:1;" d="M 256.058594 138.832031 C 226.554688 141.71875 222.972656 144.839844 207.796875 169.578125 L 209.90625 171.582031 C 211.800781 165.640625 215.804688 160.308594 218.757813 156.683594 C 222.761719 151.519531 227.394531 148.316406 232.453125 146.0625 C 238.355469 143.488281 241.9375 143.089844 256.058594 138.832031 "/>
<path style=" stroke:none;fill-rule:nonzero;fill:rgb(100%,100%,100%);fill-opacity:1;" d="M 208.21875 152.066406 C 212.644531 156.324219 213.277344 158.789063 212.855469 164.628906 C 207.585938 164.246094 206.742188 157.671875 208.21875 152.066406 "/>
<path style=" stroke:none;fill-rule:nonzero;fill:rgb(100%,100%,100%);fill-opacity:1;" d="M 229.714844 159.546875 C 221.917969 159.78125 219.808594 158.347656 212.011719 163.996094 C 216.648438 167.746094 224.023438 164.605469 229.714844 159.546875 "/>
<path style=" stroke:none;fill-rule:nonzero;fill:rgb(100%,100%,100%);fill-opacity:1;" d="M 221.074219 152.382813 C 217.28125 150.382813 217.492188 142.078125 229.082031 136.09375 C 227.605469 145.785156 225.5 146.628906 221.074219 152.382813 "/>
<path style=" stroke:none;fill-rule:nonzero;fill:rgb(100%,100%,100%);fill-opacity:1;" d="M 222.761719 151.097656 C 224.445313 157.292969 232.664063 157.167969 238.144531 153.4375 C 237.300781 152.066406 230.558594 148.167969 222.761719 151.097656 "/>
<path style=" stroke:none;fill-rule:nonzero;fill:rgb(100%,100%,100%);fill-opacity:1;" d="M 230.769531 146.480469 C 228.871094 141.296875 236.667969 132.953125 242.78125 132.234375 C 241.515625 136.410156 238.566406 143.363281 230.769531 146.480469 "/>
<path style=" stroke:none;fill-rule:nonzero;fill:rgb(100%,100%,100%);fill-opacity:1;" d="M 231.398438 146.3125 C 234.984375 151.878906 242.570313 151.183594 247.839844 150.296875 C 246.152344 145.890625 238.144531 142.246094 231.398438 146.3125 "/>
<path style=" stroke:none;fill-rule:nonzero;fill:rgb(100%,100%,100%);fill-opacity:1;" d="M 239.617188 142.308594 C 243.203125 135.144531 248.261719 131.433594 254.160156 129.199219 C 252.265625 134.933594 247.207031 141.109375 239.617188 142.308594 "/>
<path style=" stroke:none;fill-rule:nonzero;fill:rgb(100%,100%,100%);fill-opacity:1;" d="M 243.835938 141.636719 C 249.734375 141.636719 254.792969 141.910156 259.007813 146.0625 C 252.683594 148.675781 245.730469 148.464844 243.835938 141.636719 "/>
<path style=" stroke:none;fill-rule:nonzero;fill:rgb(100%,100%,100%);fill-opacity:1;" d="M 167.0625 217.902344 L 165.015625 217.902344 L 165.015625 207.574219 C 164.40625 208.207031 163.308594 208.839844 161.730469 209.472656 L 161.730469 207.574219 C 163.648438 206.734375 164.953125 205.46875 165.671875 204.203125 L 167.0625 204.203125 L 167.0625 217.902344 "/>
<path style=" stroke:none;fill-rule:nonzero;fill:rgb(100%,100%,100%);fill-opacity:1;" d="M 175.597656 211.578125 C 176.335938 211.578125 176.925781 211.367188 177.34375 210.738281 C 177.789063 210.316406 178 209.683594 178 208.839844 C 178 207.996094 177.789063 207.363281 177.324219 206.734375 C 176.882813 206.101563 176.3125 205.890625 175.636719 205.890625 C 174.941406 205.890625 174.351563 206.101563 173.867188 206.734375 C 173.382813 207.363281 173.152344 207.996094 173.152344 208.839844 C 173.152344 209.683594 173.382813 210.316406 173.867188 210.949219 C 174.332031 211.367188 174.921875 211.578125 175.597656 211.578125 Z M 178.484375 211.578125 C 178.167969 212.210938 177.726563 212.632813 177.132813 212.84375 C 176.542969 213.265625 175.910156 213.476563 175.21875 213.476563 C 174.058594 213.476563 173.066406 213.054688 172.265625 212.210938 C 171.464844 211.367188 171.066406 210.316406 171.066406 208.839844 C 171.066406 207.574219 171.488281 206.3125 172.285156 205.46875 C 173.109375 204.625 174.164063 204.203125 175.449219 204.203125 C 176.753906 204.203125 177.871094 204.625 178.820313 205.679688 C 179.746094 206.734375 180.210938 208.417969 180.210938 210.738281 C 180.210938 213.265625 179.789063 215.164063 178.945313 216.21875 C 178.082031 217.480469 176.859375 218.113281 175.257813 218.113281 C 174.203125 218.113281 173.320313 217.902344 172.605469 217.269531 C 171.886719 216.636719 171.464844 215.796875 171.316406 214.53125 L 173.257813 214.320313 C 173.511719 215.796875 174.183594 216.425781 175.28125 216.425781 C 176.207031 216.425781 176.925781 216.007813 177.429688 215.164063 C 177.933594 214.320313 178.1875 213.054688 178.1875 211.578125 L 178.484375 211.578125 "/>
<path style=" stroke:none;fill-rule:nonzero;fill:rgb(100%,100%,100%);fill-opacity:1;" d="M 186.429688 216.425781 C 187.101563 216.425781 187.671875 216.214844 188.09375 215.585938 C 188.535156 214.953125 188.746094 214.320313 188.746094 213.476563 C 188.746094 212.632813 188.535156 212.003906 188.09375 211.578125 C 187.671875 210.949219 187.082031 210.738281 186.363281 210.738281 C 185.710938 210.738281 185.144531 210.949219 184.65625 211.367188 C 184.171875 212.003906 183.941406 212.632813 183.941406 213.476563 C 183.941406 214.320313 184.171875 214.953125 184.636719 215.585938 C 185.121094 216.214844 185.710938 216.425781 186.429688 216.425781 Z M 183.394531 210.738281 C 184.132813 209.472656 185.246094 208.839844 186.703125 208.839844 C 187.859375 208.839844 188.832031 209.261719 189.632813 210.105469 C 190.433594 210.949219 190.832031 212.210938 190.832031 213.476563 C 190.832031 214.742188 190.433594 215.796875 189.632813 216.847656 C 188.851563 217.691406 187.777344 218.113281 186.46875 218.113281 C 185.121094 218.113281 183.984375 217.691406 183.054688 216.636719 C 182.109375 215.796875 181.644531 213.898438 181.644531 211.578125 C 181.644531 209.050781 182.066406 207.363281 182.910156 206.101563 C 183.753906 204.835938 184.996094 204.203125 186.597656 204.203125 C 187.648438 204.203125 188.535156 204.414063 189.273438 205.046875 C 190.011719 205.679688 190.453125 206.523438 190.601563 207.785156 L 188.597656 207.996094 C 188.304688 206.523438 187.609375 205.890625 186.511719 205.890625 C 185.753906 205.890625 185.078125 206.3125 184.511719 207.15625 C 183.960938 207.785156 183.667969 209.050781 183.667969 210.738281 L 183.394531 210.738281 "/>
<path style=" stroke:none;fill-rule:nonzero;fill:rgb(100%,100%,100%);fill-opacity:1;" d="M 196.839844 216.425781 C 197.617188 216.425781 198.230469 216.007813 198.652344 215.164063 C 199.074219 214.53125 199.28125 213.054688 199.28125 211.160156 C 199.28125 209.894531 199.28125 208.839844 198.988281 207.996094 C 198.777344 207.363281 198.523438 206.734375 198.167969 206.523438 C 197.808594 206.101563 197.34375 205.890625 196.816406 205.890625 C 196.015625 205.890625 195.425781 206.3125 195.003906 207.15625 C 194.585938 207.996094 194.371094 209.261719 194.371094 211.160156 C 194.371094 212.421875 194.585938 213.476563 194.667969 214.320313 C 194.878906 214.953125 195.132813 215.585938 195.488281 216.007813 C 195.847656 216.21875 196.289063 216.425781 196.839844 216.425781 Z M 196.839844 204.203125 C 199.851563 204.203125 201.371094 206.523438 201.371094 211.160156 C 201.371094 213.476563 200.988281 215.164063 200.210938 216.425781 C 199.429688 217.480469 198.3125 218.113281 196.839844 218.113281 C 193.804688 218.113281 192.285156 215.796875 192.285156 211.160156 C 192.285156 208.839844 192.6875 207.15625 193.46875 205.890625 C 194.246094 204.835938 195.363281 204.203125 196.839844 204.203125 "/>
</g>
</svg>
